<?xml version="1.0" encoding="UTF-8"?> <svg xmlns="http://www.w3.org/2000/svg" xmlns:xlink="http://www.w3.org/1999/xlink" id="Capa_2" viewBox="0 0 1536 297.38"><defs><style> .cls-1 { fill: none; } .cls-2 { fill: url(#Degradado_sin_nombre_22-4); } .cls-3 { fill: url(#Degradado_sin_nombre_22-2); } .cls-4 { fill: url(#Degradado_sin_nombre_22-3); } .cls-5 { fill: url(#Degradado_sin_nombre_22-6); } .cls-6 { fill: url(#Degradado_sin_nombre_22-8); } .cls-7 { fill: url(#Degradado_sin_nombre_22-7); } .cls-8 { fill: url(#Degradado_sin_nombre_22-5); } .cls-9 { fill: url(#Degradado_sin_nombre_22-9); } .cls-10 { fill: url(#Degradado_sin_nombre_13-3); } .cls-11 { fill: url(#Degradado_sin_nombre_13-2); } .cls-12 { fill: url(#Degradado_sin_nombre_13-5); } .cls-13 { fill: url(#Degradado_sin_nombre_13-4); } .cls-14 { fill: url(#Degradado_sin_nombre_13-6); } .cls-15 { fill: #06642e; } .cls-16 { fill: url(#Degradado_sin_nombre_32); } .cls-17 { fill: url(#Degradado_sin_nombre_13); } .cls-18 { fill: url(#Degradado_sin_nombre_22); } .cls-19 { fill: #1e120c; } </style><linearGradient id="Degradado_sin_nombre_13" data-name="Degradado sin nombre 13" x1="456.63" y1="278.31" x2="398.53" y2="220.21" gradientTransform="translate(-425.81 334.82) rotate(-41.31)" gradientUnits="userSpaceOnUse"><stop offset="0" stop-color="#4c8f39"></stop><stop offset=".11" stop-color="#398636"></stop><stop offset=".26" stop-color="#257e32"></stop><stop offset=".43" stop-color="#167730"></stop><stop offset=".65" stop-color="#0e742f"></stop><stop offset="1" stop-color="#0c732f"></stop></linearGradient><linearGradient id="Degradado_sin_nombre_13-2" data-name="Degradado sin nombre 13" x1="714.07" y1="302.73" x2="631.69" y2="220.35" gradientTransform="translate(456.04 -440.11) rotate(138.69) scale(1 -1)" xlink:href="#Degradado_sin_nombre_13"></linearGradient><linearGradient id="Degradado_sin_nombre_13-3" data-name="Degradado sin nombre 13" x1="413.74" y1="308.58" x2="436.12" y2="286.2" xlink:href="#Degradado_sin_nombre_13"></linearGradient><linearGradient id="Degradado_sin_nombre_13-4" data-name="Degradado sin nombre 13" x1="459.6" y1="354.82" x2="546.07" y2="268.36" xlink:href="#Degradado_sin_nombre_13"></linearGradient><linearGradient id="Degradado_sin_nombre_22" data-name="Degradado sin nombre 22" x1="462.55" y1="187.74" x2="328.56" y2="53.75" gradientTransform="translate(-363.39 269.95) rotate(-41.31) scale(.92 1.01)" gradientUnits="userSpaceOnUse"><stop offset="0" stop-color="#eec045"></stop><stop offset=".13" stop-color="#ebb43f"></stop><stop offset=".46" stop-color="#e59b33"></stop><stop offset=".76" stop-color="#e28c2b"></stop><stop offset="1" stop-color="#e18729"></stop></linearGradient><linearGradient id="Degradado_sin_nombre_22-2" data-name="Degradado sin nombre 22" x1="436.97" y1="268.5" x2="304.65" y2="136.18" xlink:href="#Degradado_sin_nombre_22"></linearGradient><linearGradient id="Degradado_sin_nombre_22-3" data-name="Degradado sin nombre 22" x1="450.52" y1="228.33" x2="315.13" y2="92.94" xlink:href="#Degradado_sin_nombre_22"></linearGradient><linearGradient id="Degradado_sin_nombre_22-4" data-name="Degradado sin nombre 22" x1="398.14" y1="228.98" x2="264.83" y2="95.67" xlink:href="#Degradado_sin_nombre_22"></linearGradient><linearGradient id="Degradado_sin_nombre_22-5" data-name="Degradado sin nombre 22" x1="427.61" y1="153.05" x2="263.55" y2="-11.01" xlink:href="#Degradado_sin_nombre_22"></linearGradient><linearGradient id="Degradado_sin_nombre_22-6" data-name="Degradado sin nombre 22" x1="411.55" y1="188.28" x2="271.34" y2="48.07" xlink:href="#Degradado_sin_nombre_22"></linearGradient><linearGradient id="Degradado_sin_nombre_22-7" data-name="Degradado sin nombre 22" x1="501.54" y1="228.89" x2="364.26" y2="91.6" xlink:href="#Degradado_sin_nombre_22"></linearGradient><linearGradient id="Degradado_sin_nombre_22-8" data-name="Degradado sin nombre 22" x1="476.05" y1="308.25" x2="342.95" y2="175.16" xlink:href="#Degradado_sin_nombre_22"></linearGradient><linearGradient id="Degradado_sin_nombre_22-9" data-name="Degradado sin nombre 22" x1="490.06" y1="268.92" x2="352.53" y2="131.39" xlink:href="#Degradado_sin_nombre_22"></linearGradient><linearGradient id="Degradado_sin_nombre_13-5" data-name="Degradado sin nombre 13" x1="156.36" y1="290.27" x2="292.81" y2="290.27" gradientTransform="matrix(1,0,0,1,0,0)" xlink:href="#Degradado_sin_nombre_13"></linearGradient><linearGradient id="Degradado_sin_nombre_32" data-name="Degradado sin nombre 32" x1="71.38" y1="160.56" x2="218.85" y2="13.09" gradientUnits="userSpaceOnUse"><stop offset="0" stop-color="#e18729"></stop><stop offset=".05" stop-color="#e28c2b"></stop><stop offset=".41" stop-color="#e8a839"></stop><stop offset=".71" stop-color="#ecb941"></stop><stop offset=".94" stop-color="#eec045"></stop></linearGradient><linearGradient id="Degradado_sin_nombre_13-6" data-name="Degradado sin nombre 13" x1="166.77" y1="201.97" x2="287.13" y2="201.97" gradientTransform="matrix(1,0,0,1,0,0)" xlink:href="#Degradado_sin_nombre_13"></linearGradient></defs><g id="Capa_1-2" data-name="Capa_1"><g><g><path class="cls-17" d="M19.78,223.78s10.86,23.12,21.33,26.59l58.95,5.47.88-25.87-81.16-6.2Z"></path><path class="cls-11" d="M112.04,141.42s23.24,15.52,25.34,26.34l-2.96,91.84-25.77-2.45,3.39-115.74Z"></path><path class="cls-10" d="M47.28,259.12s32.3,31.9,84.84,37.2l.86-29.24-85.69-7.95Z"></path><path class="cls-13" d="M143.81,174.8s-3.55,117.38-3.55,122.28c14.32,1.3,31.38-2.1,31.38-2.1,0,0,3.89-86.62-27.82-120.18Z"></path><g><path class="cls-18" d="M63.81,144.86l-.33-24.23c-.03-1.96-1.52-3.71-3.45-4.08-7.28-1.41-14.87-2.27-22.75-2.6l.17,27.21,26.36,3.69Z"></path><polygon class="cls-3" points="37.9 214.72 64.8 218.1 64.41 189.25 37.72 185.83 37.9 214.72"></polygon><polygon class="cls-4" points="37.67 177.11 64.29 180.52 63.93 153.59 37.5 149.89 37.67 177.11"></polygon><path class="cls-2" d="M29.08,184.72l-27.41-3.51c1.32,8.64,3.53,17.65,6.95,26.73.74,1.97,2.54,3.43,4.56,3.68l16.08,2.02-.18-28.92Z"></path><path class="cls-8" d="M28.64,113.81c-7.29.05-14.79.51-22.55,1.44-1.05,3.49-3.05,10.93-4.47,20.9l27.18,3.81-.16-26.15Z"></path><path class="cls-5" d="M28.86,148.68l-28.23-3.95h0c-.61,6.87-.85,14.59-.38,22.85.15,2.7,2.33,5.04,5,5.38l23.77,3.05-.17-27.32Z"></path><path class="cls-7" d="M99.31,149.83l-.2-13.62c-.05-3.21-1.94-6.31-4.88-7.84-6.98-3.63-14.37-6.59-22.14-8.87l.36,26.57,26.86,3.76Z"></path><polygon class="cls-6" points="73.45 219.19 100.38 222.57 99.96 193.81 73.06 190.36 73.45 219.19"></polygon><polygon class="cls-9" points="72.94 181.63 99.83 185.07 99.44 158.56 72.58 154.8 72.94 181.63"></polygon></g></g><path class="cls-1" d="M241.1,71.92c-.12-.13-.24-.26-.35-.39.02.14.04.29.05.44.1-.02.2-.04.31-.05Z"></path><path class="cls-1" d="M33.73,81.03c-.12.21-.25.41-.37.62.19.02.39.05.59.07-.09-.23-.15-.46-.22-.69Z"></path><path class="cls-12" d="M190.9,290.42s.32-.12.84-.3h-.83l-.02.3Z"></path><path class="cls-16" d="M138,141.48c3.08,2.92,5.99,5.99,8.81,9.15,2.82-3.15,5.73-6.23,8.81-9.15,47.86-45.25,113.11-47.45,127.68-47.34-.66-1.81-1.21-3.23-1.38-3.36-.81-1.98-1.67-3.93-2.57-5.87C256.18,34.84,205.49,0,146.78,0S40.5,32.74,16.42,80.36c-1.45,2.87-2.84,5.77-4.1,8.74l-2,5.05c14.56-.11,79.81,2.08,127.68,47.34ZM241.1,71.92c-.1.02-.2.03-.31.05-.01-.15-.03-.29-.05-.44.12.13.24.26.35.39ZM33.73,81.03c.08.23.13.45.22.69-.19-.02-.4-.05-.59-.07.12-.21.25-.41.37-.62Z"></path><path class="cls-14" d="M291.31,122.93c-.26-1.89-.56-3.77-.89-5.64-3-.77-8.73-2.03-16.4-2.76-25.78-2.48-73.4,1.02-112.72,49.27,20.43,32.94,30.78,75.2,30.8,126.19,3.03-1.16,10.97-4.21,13.4-5.37.5-.23.99-.47,1.48-.7,50.56-24.07,85.82-77.43,85.82-139.28,0-7.37-.53-14.61-1.5-21.7Z"></path></g><g><g><path class="cls-19" d="M465.06,140.27v20.67h-56.46v26.24h48.19v20.04h-48.19v23.7h57.57v20.67h-79.84v-111.33h78.72Z"></path><path class="cls-19" d="M504.65,135.19v93.99c0,2.07,1.11,2.86,2.86,2.86,2.23,0,4.29-.16,7.63-.48v17.33c-.64.48-9.22,2.7-15.9,2.7-10.97,0-16.38-7.16-16.38-16.86v-99.56h21.79Z"></path><path class="cls-19" d="M600.55,140.27l31.33,78.56h.32l31.33-78.56h30.06v111.33h-22.11v-77.29h-.48l-29.1,70.77h-19.72l-29.1-70.77h-.32v77.29h-22.27v-111.33h30.06Z"></path><path class="cls-19" d="M748.92,167.31c20.52,0,32.13,9.54,32.13,27.51v34.35c0,2.23,1.11,2.86,3.5,2.86,1.27,0,3.98-.16,7.32-.48v17.33c-.64.48-7.32,2.7-13.2,2.7-5.25,0-14-1.75-14-10.81v-1.75c-4.61,8.11-14.31,14.15-25.76,14.15-15.11,0-29.9-9.38-29.9-26.88s15.27-26.4,34.19-26.4c5.57,0,11.93.48,17.18,1.11v-2.38c0-12.09-8.27-13.68-14.95-13.68-7.16,0-18.77,1.75-24.97,3.18l-3.98-15.43c7.47-2.54,21.31-5.41,32.44-5.41ZM747.17,213.91c-7.16,0-18.13,1.75-18.13,11.45,0,7.31,6.36,11.45,13.52,11.45,8.27,0,17.81-5.72,17.81-13.36v-8.27c-4.14-.64-8.91-1.27-13.2-1.27Z"></path><path class="cls-19" d="M821.43,168.9l3.5,10.97s6.52-12.57,24.17-12.57c15.27,0,31.01,8.27,31.01,34.51v49.78h-22.11v-48.67c0-9.7-6.36-14.79-14.63-14.79-10.82,0-16.7,8.43-16.7,17.81v45.64h-22.26v-82.7h17.02Z"></path><path class="cls-19" d="M933.23,167.31c20.52,0,32.12,9.54,32.12,27.51v34.35c0,2.23,1.11,2.86,3.5,2.86,1.27,0,3.97-.16,7.31-.48v17.33c-.64.48-7.31,2.7-13.2,2.7-5.25,0-13.99-1.75-13.99-10.81v-1.75c-4.61,8.11-14.31,14.15-25.76,14.15-15.11,0-29.9-9.38-29.9-26.88s15.27-26.4,34.19-26.4c5.57,0,11.93.48,17.18,1.11v-2.38c0-12.09-8.27-13.68-14.95-13.68-7.16,0-18.77,1.75-24.97,3.18l-3.98-15.43c7.48-2.54,21.31-5.41,32.44-5.41ZM931.48,213.91c-7.16,0-18.13,1.75-18.13,11.45,0,7.31,6.36,11.45,13.52,11.45,8.27,0,17.81-5.72,17.81-13.36v-8.27c-4.14-.64-8.91-1.27-13.2-1.27Z"></path><path class="cls-19" d="M1005.75,168.9l3.5,10.97s6.52-12.57,24.17-12.57c15.27,0,31.01,8.27,31.01,34.51v49.78h-22.11v-48.67c0-9.7-6.36-14.79-14.63-14.79-10.82,0-16.7,8.43-16.7,17.81v45.64h-22.26v-82.7h17.02Z"></path><path class="cls-19" d="M1109.91,145.05v23.86h17.34v16.22h-17.34v40.08c0,4.45,2.23,8.27,8.11,8.27,2.7,0,5.88-.48,9.7-.95l3.18,15.43c-4.45,2.07-10.66,3.66-16.38,3.66-19.56,0-26.4-9.07-26.4-29.42v-37.05h-11.13v-12.88l11.13-3.18,3.34-24.02h18.45Z"></path><path class="cls-19" d="M1169.54,168.9v82.7h-21.47v-63.77l-9.7-3.5v-15.43h31.17ZM1169.39,145.84c0,6.68-5.72,12.25-12.41,12.25s-11.93-5.57-11.93-12.25,5.09-12.24,11.93-12.24,12.41,5.72,12.41,12.24Z"></path><path class="cls-19" d="M1223.14,167.31c20.52,0,32.12,9.54,32.12,27.51v34.35c0,2.23,1.11,2.86,3.5,2.86,1.27,0,3.97-.16,7.31-.48v17.33c-.64.48-7.31,2.7-13.2,2.7-5.25,0-13.99-1.75-13.99-10.81v-1.75c-4.61,8.11-14.31,14.15-25.76,14.15-15.11,0-29.9-9.38-29.9-26.88s15.27-26.4,34.19-26.4c5.57,0,11.93.48,17.18,1.11v-2.38c0-12.09-8.27-13.68-14.95-13.68-7.16,0-18.77,1.75-24.97,3.18l-3.98-15.43c7.48-2.54,21.31-5.41,32.44-5.41ZM1221.38,213.91c-7.16,0-18.13,1.75-18.13,11.45,0,7.31,6.36,11.45,13.52,11.45,8.27,0,17.81-5.72,17.81-13.36v-8.27c-4.14-.64-8.91-1.27-13.2-1.27Z"></path><path class="cls-19" d="M1300.42,135.19v93.99c0,2.07,1.11,2.86,2.86,2.86,2.23,0,4.29-.16,7.63-.48v17.33c-.64.48-9.22,2.7-15.9,2.7-10.97,0-16.38-7.16-16.38-16.86v-99.56h21.79Z"></path></g><g><path class="cls-15" d="M381.66,93.62l3.29-6.89c4.77,2.65,13.89,7.42,25.35,7.42,12.09,0,18.35-5.3,18.35-12.09,0-7.53-7.53-11.24-18.66-15.27-9.23-3.92-18.45-8.17-18.45-20.89,0-13.89,10.82-20.26,25.56-20.26,11.77,0,21.32,4.03,26.62,6.89l-3.29,6.79c-5.62-2.86-13.57-5.83-22.48-5.83-12.73,0-17.07,6.05-17.07,11.98,0,6.68,5.51,9.86,15.8,13.79,11.14,4.24,21.42,8.38,21.42,21.85s-11.13,21-26.72,21c-11.67,0-22.16-3.92-29.69-8.48Z"></path><path class="cls-15" d="M481.35,94.58c5.51,0,11.56-1.38,16.22-3.92l2.65,6.47c-6.47,3.71-14.21,4.88-19.83,4.88-15.59,0-27.15-9.97-27.15-25.88,0-17.82,14.53-31.39,32.98-31.39,11.24,0,20.57,5.41,20.57,16.33,0,11.56-10.5,18.13-26.72,18.13-9.01,0-17.92-2.01-17.92-2.01.11,10.39,7.64,17.39,19.2,17.39ZM479.55,71.88c7.95,0,18.77-1.38,18.77-10.82,0-6.89-5.83-8.91-11.98-8.91-14.42,0-21.42,9.33-23.44,18.03,3.82.85,10.82,1.7,16.65,1.7Z"></path><path class="cls-15" d="M534.69,45.79v7.42c4.77-6.68,11.88-8.48,17.6-8.48,6.89,0,12.83,2.54,14.74,10.29,3.92-6.79,11.67-10.29,19.83-10.29,10.07,0,17.6,5.2,17.6,17.82,0,2.12-.21,4.56-.64,7.11l-5.62,31.28h-8.8l5.62-31.71c.32-2.01.53-3.82.53-5.41,0-7.21-3.29-10.92-10.6-10.92-9.12,0-15.06,5.83-16.65,14.74l-5.94,33.3h-9.01l6.36-35.63c1.27-7.32-2.33-12.41-10.18-12.41-8.91,0-15.38,6.58-16.86,14.95l-5.83,33.09h-8.38l7.53-42.95,1.17-12.2h7.53Z"></path><path class="cls-15" d="M639.79,45.79l-9.65,55.14h-9.23l8.48-47.62-5.83-1.7,1.17-5.83h15.06ZM636.72,25.22c3.18,0,5.73,2.65,5.73,5.83s-2.54,5.73-5.73,5.73-5.83-2.54-5.83-5.73,2.65-5.83,5.83-5.83Z"></path><path class="cls-15" d="M675.64,23.31l-11.24,64.05c-.53,2.76-.53,3.5-.53,3.71,0,3.61,2.12,3.92,4.56,3.92,1.38,0,2.23-.11,4.77-.42l-1.17,6.47c-2.55.53-4.98.95-7.42.95-4.98,0-9.65-1.8-9.65-9.76,0-1.17.11-2.76.42-4.35l11.24-64.58h9.01Z"></path><path class="cls-15" d="M709.47,23.31l-11.24,64.05c-.53,2.76-.53,3.5-.53,3.71,0,3.61,2.12,3.92,4.56,3.92,1.38,0,2.23-.11,4.77-.42l-1.17,6.47c-2.55.53-4.98.95-7.42.95-4.98,0-9.65-1.8-9.65-9.76,0-1.17.11-2.76.42-4.35l11.24-64.58h9.01Z"></path><path class="cls-15" d="M749.34,94.58c5.51,0,11.56-1.38,16.22-3.92l2.65,6.47c-6.47,3.71-14.21,4.88-19.83,4.88-15.59,0-27.15-9.97-27.15-25.88,0-17.82,14.53-31.39,32.98-31.39,11.24,0,20.57,5.41,20.57,16.33,0,11.56-10.5,18.13-26.72,18.13-9.01,0-17.92-2.01-17.92-2.01.11,10.39,7.64,17.39,19.2,17.39ZM747.54,71.88c7.95,0,18.77-1.38,18.77-10.82,0-6.89-5.83-8.91-11.98-8.91-14.42,0-21.42,9.33-23.44,18.03,3.82.85,10.82,1.7,16.65,1.7Z"></path><path class="cls-15" d="M802.69,45.79l-.64,11.13c2.23-5.3,8.17-11.67,19.94-11.67h1.27l-1.38,8.27h-1.27c-12.09,0-18.35,7.42-20.26,18.45l-5.09,28.95h-9.01l7.32-40.93,1.48-14.21h7.64Z"></path><path class="cls-15" d="M861.23,44.73c16.65,0,27.47,10.71,27.47,26.41,0,16.97-12.73,30.86-31.82,30.86-16.76,0-27.47-10.71-27.47-26.51,0-16.86,12.83-30.75,31.81-30.75ZM838.32,75.28c0,11.24,7.32,19.3,19.09,19.3,14.11,0,22.38-11.35,22.38-23.22,0-11.14-7.42-19.2-19.09-19.2-14.1,0-22.37,11.24-22.37,23.12Z"></path></g><g><path class="cls-19" d="M1353.07,247.8l4.12-9.04c3.15,1.53,9.37,4.04,16.23,4.04s10.74-2.26,10.74-6.14c0-10.42-30.61-4.68-30.61-25.76,0-10.58,7.83-17.04,20.67-17.04,8,0,15.34,2.5,19.06,4.28l-3.96,8.96s-7.35-3.23-14.54-3.23c-6.06,0-9.93,2.34-9.93,6.14,0,10.58,30.53,5.49,30.53,25.76,0,10.74-8.4,17.04-21.89,17.04-9.94,0-17.53-3.39-20.43-5.01Z"></path><path class="cls-19" d="M1414.53,246.27c0,3.31-2.75,6.14-6.22,6.14s-6.14-2.75-6.14-6.14,2.75-6.14,6.14-6.14,6.22,2.75,6.22,6.14Z"></path><path class="cls-19" d="M1450.39,195.07c9.45,0,17.28,7.83,17.28,17.36,0,6.95-4.12,13.41-10.66,16.07l12.84,23.1h-13.08l-11.31-21.8h-9.45v21.8h-11.31v-56.53h25.68ZM1436.02,219.62h14.37c3.23,0,6.14-3.8,6.14-7.19,0-5.89-5.25-6.86-9.69-6.86h-10.82v14.05Z"></path><path class="cls-19" d="M1488.03,246.27c0,3.31-2.75,6.14-6.22,6.14s-6.14-2.75-6.14-6.14,2.75-6.14,6.14-6.14,6.22,2.75,6.22,6.14Z"></path><path class="cls-19" d="M1509.51,195.07v46.03h26.49v10.5h-37.8v-56.53h11.31Z"></path></g></g></g></svg> 